<svg xmlns="http://www.w3.org/2000/svg" version="1.1" xmlns:xlink="http://www.w3.org/1999/xlink" xmlns:svgjs="http://svgjs.dev/svgjs" width="1000" height="623" viewBox="0 0 1000 623"><g transform="matrix(1,0,0,1,-0.60605202791902,0.2522267206477409)"><svg viewBox="0 0 396 247" data-background-color="#ffffff" preserveAspectRatio="xMidYMid meet" height="623" width="1000" xmlns="http://www.w3.org/2000/svg" xmlns:xlink="http://www.w3.org/1999/xlink"><g id="tight-bounds" transform="matrix(1,0,0,1,0.23999667888057274,-0.09999999999999432)"><svg viewBox="0 0 395.52 247.2" height="247.2" width="395.52"><g><svg></svg></g><g><svg viewBox="0 0 395.52 247.2" height="247.2" width="395.52"><g><g><path xmlns="http://www.w3.org/2000/svg" d="M267.019 247.2l-17.759-50.434h-103.355l-17.759 50.434h-42.265l29.907-83.597h41.529l-0.047 0.131h80.624l-0.045-0.131 41.883 0 29.907 83.597zM174.319 0h46.882l29.908 83.597h-41.25l-12.099-34.583-12.206 34.583-41.143 0z" fill="#ff5858" fill-rule="nonzero" stroke="none" stroke-width="1" stroke-linecap="butt" stroke-linejoin="miter" stroke-miterlimit="10" stroke-dasharray="" stroke-dashoffset="0" font-family="none" font-weight="none" font-size="none" text-anchor="none" style="mix-blend-mode: normal" data-fill-palette-color="tertiary"></path></g></g><g transform="matrix(1,0,0,1,0,92.63416281407035)"><svg viewBox="0 0 395.52 61.9316743718593" height="61.9316743718593" width="395.52"><g><svg viewBox="0 0 395.52 61.9316743718593" height="61.9316743718593" width="395.52"><g><svg viewBox="0 0 395.52 61.9316743718593" height="61.9316743718593" width="395.52"><g><svg viewBox="0 0 395.52 61.9316743718593" height="61.9316743718593" width="395.52"><g id="textblocktransform"><svg viewBox="0 0 395.52 61.9316743718593" height="61.9316743718593" width="395.52" id="textblock"><g><svg viewBox="0 0 395.52 61.9316743718593" height="61.9316743718593" width="395.52"><g transform="matrix(1,0,0,1,0,0)"><svg width="395.52" viewBox="1.7000000476837158 -38.5 248.72999572753906 38.95000076293945" height="61.9316743718593" data-palette-color="#ff5858"><path d="M27.2 0L24.7-7.1 10.15-7.1 7.65 0 1.7 0 14.15-34.8 20.75-34.8 33.2 0 27.2 0ZM11.75-11.75L23.1-11.75 17.45-27.9 11.75-11.75ZM52.5-28Q55.75-28 58.32-26.65 60.9-25.3 62.35-22.65 63.8-20 63.8-16.25L63.8-16.25 63.8 0 58.15 0 58.15-15.4Q58.15-19.1 56.3-21.08 54.45-23.05 51.25-23.05L51.25-23.05Q48.05-23.05 46.17-21.08 44.3-19.1 44.3-15.4L44.3-15.4 44.3 0 38.6 0 38.6-27.55 44.3-27.55 44.3-24.4Q45.7-26.1 47.87-27.05 50.05-28 52.5-28L52.5-28ZM69.15-13.9Q69.15-18.05 70.87-21.25 72.6-24.45 75.57-26.23 78.55-28 82.15-28L82.15-28Q85.4-28 87.82-26.73 90.25-25.45 91.7-23.55L91.7-23.55 91.7-27.55 97.45-27.55 97.45 0 91.7 0 91.7-4.1Q90.25-2.15 87.75-0.85 85.25 0.45 82.05 0.45L82.05 0.45Q78.5 0.45 75.55-1.38 72.6-3.2 70.87-6.48 69.15-9.75 69.15-13.9L69.15-13.9ZM91.7-13.8Q91.7-16.65 90.52-18.75 89.35-20.85 87.45-21.95 85.55-23.05 83.35-23.05L83.35-23.05Q81.15-23.05 79.25-21.98 77.35-20.9 76.17-18.82 75-16.75 75-13.9L75-13.9Q75-11.05 76.17-8.9 77.35-6.75 79.27-5.63 81.2-4.5 83.35-4.5L83.35-4.5Q85.55-4.5 87.45-5.6 89.35-6.7 90.52-8.83 91.7-10.95 91.7-13.8L91.7-13.8ZM114.94 0.45Q111.69 0.45 109.12-0.73 106.54-1.9 105.04-3.93 103.54-5.95 103.44-8.45L103.44-8.45 109.34-8.45Q109.49-6.7 111.02-5.53 112.54-4.35 114.84-4.35L114.84-4.35Q117.24-4.35 118.57-5.28 119.89-6.2 119.89-7.65L119.89-7.65Q119.89-9.2 118.42-9.95 116.94-10.7 113.74-11.6L113.74-11.6Q110.64-12.45 108.69-13.25 106.74-14.05 105.32-15.7 103.89-17.35 103.89-20.05L103.89-20.05Q103.89-22.25 105.19-24.08 106.49-25.9 108.92-26.95 111.34-28 114.49-28L114.49-28Q119.19-28 122.07-25.63 124.94-23.25 125.14-19.15L125.14-19.15 119.44-19.15Q119.29-21 117.94-22.1 116.59-23.2 114.29-23.2L114.29-23.2Q112.04-23.2 110.84-22.35 109.64-21.5 109.64-20.1L109.64-20.1Q109.64-19 110.44-18.25 111.24-17.5 112.39-17.07 113.54-16.65 115.79-16L115.79-16Q118.79-15.2 120.72-14.38 122.64-13.55 124.04-11.95 125.44-10.35 125.49-7.7L125.49-7.7Q125.49-5.35 124.19-3.5 122.89-1.65 120.52-0.6 118.14 0.45 114.94 0.45L114.94 0.45ZM144.99-22.9L138.29-22.9 138.29-7.65Q138.29-6.1 139.02-5.43 139.74-4.75 141.49-4.75L141.49-4.75 144.99-4.75 144.99 0 140.49 0Q136.64 0 134.59-1.8 132.54-3.6 132.54-7.65L132.54-7.65 132.54-22.9 129.29-22.9 129.29-27.55 132.54-27.55 132.54-34.4 138.29-34.4 138.29-27.55 144.99-27.55 144.99-22.9ZM148.34-13.9Q148.34-18.05 150.06-21.25 151.79-24.45 154.76-26.23 157.74-28 161.34-28L161.34-28Q164.59-28 167.01-26.73 169.44-25.45 170.89-23.55L170.89-23.55 170.89-27.55 176.64-27.55 176.64 0 170.89 0 170.89-4.1Q169.44-2.15 166.94-0.85 164.44 0.45 161.24 0.45L161.24 0.45Q157.69 0.45 154.74-1.38 151.79-3.2 150.06-6.48 148.34-9.75 148.34-13.9L148.34-13.9ZM170.89-13.8Q170.89-16.65 169.71-18.75 168.54-20.85 166.64-21.95 164.74-23.05 162.54-23.05L162.54-23.05Q160.34-23.05 158.44-21.98 156.54-20.9 155.36-18.82 154.19-16.75 154.19-13.9L154.19-13.9Q154.19-11.05 155.36-8.9 156.54-6.75 158.46-5.63 160.39-4.5 162.54-4.5L162.54-4.5Q164.74-4.5 166.64-5.6 168.54-6.7 169.71-8.83 170.89-10.95 170.89-13.8L170.89-13.8ZM194.14 0.45Q190.89 0.45 188.31-0.73 185.74-1.9 184.24-3.93 182.74-5.95 182.64-8.45L182.64-8.45 188.54-8.45Q188.69-6.7 190.21-5.53 191.74-4.35 194.04-4.35L194.04-4.35Q196.44-4.35 197.76-5.28 199.09-6.2 199.09-7.65L199.09-7.65Q199.09-9.2 197.61-9.95 196.14-10.7 192.94-11.6L192.94-11.6Q189.84-12.45 187.89-13.25 185.94-14.05 184.51-15.7 183.09-17.35 183.09-20.05L183.09-20.05Q183.09-22.25 184.39-24.08 185.69-25.9 188.11-26.95 190.54-28 193.69-28L193.69-28Q198.39-28 201.26-25.63 204.14-23.25 204.34-19.15L204.34-19.15 198.64-19.15Q198.49-21 197.14-22.1 195.79-23.2 193.49-23.2L193.49-23.2Q191.24-23.2 190.04-22.35 188.84-21.5 188.84-20.1L188.84-20.1Q188.84-19 189.64-18.25 190.44-17.5 191.59-17.07 192.74-16.65 194.99-16L194.99-16Q197.99-15.2 199.91-14.38 201.84-13.55 203.24-11.95 204.64-10.35 204.69-7.7L204.69-7.7Q204.69-5.35 203.39-3.5 202.09-1.65 199.71-0.6 197.34 0.45 194.14 0.45L194.14 0.45ZM213.73-31.2Q212.18-31.2 211.13-32.25 210.08-33.3 210.08-34.85L210.08-34.85Q210.08-36.4 211.13-37.45 212.18-38.5 213.73-38.5L213.73-38.5Q215.23-38.5 216.28-37.45 217.33-36.4 217.33-34.85L217.33-34.85Q217.33-33.3 216.28-32.25 215.23-31.2 213.73-31.2L213.73-31.2ZM210.83-27.55L216.53-27.55 216.53 0 210.83 0 210.83-27.55ZM222.13-13.9Q222.13-18.05 223.86-21.25 225.58-24.45 228.56-26.23 231.53-28 235.13-28L235.13-28Q238.38-28 240.81-26.73 243.23-25.45 244.68-23.55L244.68-23.55 244.68-27.55 250.43-27.55 250.43 0 244.68 0 244.68-4.1Q243.23-2.15 240.73-0.85 238.23 0.45 235.03 0.45L235.03 0.45Q231.48 0.45 228.53-1.38 225.58-3.2 223.86-6.48 222.13-9.75 222.13-13.9L222.13-13.9ZM244.68-13.8Q244.68-16.65 243.51-18.75 242.33-20.85 240.43-21.95 238.53-23.05 236.33-23.05L236.33-23.05Q234.13-23.05 232.23-21.98 230.33-20.9 229.16-18.82 227.98-16.75 227.98-13.9L227.98-13.9Q227.98-11.05 229.16-8.9 230.33-6.75 232.26-5.63 234.18-4.5 236.33-4.5L236.33-4.5Q238.53-4.5 240.43-5.6 242.33-6.7 243.51-8.83 244.68-10.95 244.68-13.8L244.68-13.8Z" opacity="1" transform="matrix(1,0,0,1,0,0)" fill="#ff5858" class="undefined-text-0" data-fill-palette-color="primary" id="text-0"></path></svg></g></svg></g></svg></g></svg></g></svg></g></svg></g></svg></g></svg></g><defs></defs></svg><rect width="395.52" height="247.2" fill="none" stroke="none" visibility="hidden"></rect></g></svg></g></svg>